<?xml version="1.0" encoding="utf-8"?>
<!-- Generator: Adobe Illustrator 18.0.0, SVG Export Plug-In . SVG Version: 6.00 Build 0)  -->
<!DOCTYPE svg PUBLIC "-//W3C//DTD SVG 1.1 Tiny//EN" "http://www.w3.org/Graphics/SVG/1.1/DTD/svg11-tiny.dtd">
<svg version="1.1" baseProfile="tiny" id="Capa_1" xmlns="http://www.w3.org/2000/svg" xmlns:xlink="http://www.w3.org/1999/xlink"
	 x="0px" y="0px" viewBox="0 0 426 179" xml:space="preserve">
<g>
	<path fill="#FFFFFF" d="M35.2,90.2c-1.3-11.9-1.3-12,10-11.6c16.3,0.6,32.6,1.5,48.9-0.1c11.4-1.1,21.5-4.1,30.1-12.5
		c12.3-11.9,25.9-22.5,38.4-34.3c5.7-5.4,11.5-6.1,18.3-4c4.4,1.4,8.8,3,13.2,4.6c3.1,1.1,5.5,0.7,8.2-1.5c7.9-6.2,16.2-11.8,24-18
		c3.8-3,7.5-3.2,11.6-2c6.3,1.8,11.3,5.6,16,9.9c8.9,8.1,16.6,17.3,24.8,26c4.9,5.2,10.2,10,15.1,15.3c13,14.2,29.5,18.9,48.1,19.2
		c16.3,0.2,32.7-0.6,49-1.1c4.2-0.1,5.8,0.9,5.1,5.1c-0.2,1.5-0.1,3,0,4.5c0.2,2-0.6,2.6-2.6,2.6c-26.6,0-53.3,1.3-79.8-3.3
		c-2.8-0.5-5.4-1.5-7.9-3c-15.5-8.8-27.4-21.5-38.4-35.3c-8-10-16.3-19.8-26.9-27.3c-2.6-1.9-4.9-2.1-7.8-0.9
		c-5.4,2.2-10.8,4.8-14.7,9.2c-11.4,13.2-24.9,13.9-39.7,7.2c-3.6-1.6-6.1-1-9.1,0.9c-7.4,4.7-13.5,10.8-19.4,17.1
		c-6.9,7.3-13.3,14.9-21.1,21.2c-9.8,7.9-21,11.9-33.6,12.2c-11.5,0.3-23-0.7-34.5-1.3C52,88.8,43.5,88.7,35.2,90.2z"/>
	<path fill="#FFFFFF" d="M358.8,108.5c-19.5,0.9-39,0.8-58-4.5c-11.1-3.1-20.7-8.8-30.1-15.2c-10.3-7-20.3-14.5-31.6-19.9
		c-4.5-2.1-9.2-3.8-14.1-5c-9.7-2.6-18.9-1.8-27,4.5c-7.7,5.9-16.1,7.4-25.4,4.7c-8.1-2.3-14.7,0.1-20,6.5
		c-7.2,8.7-15.8,15.6-25.7,21.1c-5.4,3-11,4.4-17.1,4.8c-24.3,1.6-48.6,0.1-73,0.1c-2.4,0-3-0.7-2.9-3.1c0.5-9.1,0.4-9.2,9.4-8.8
		c15.6,0.8,31.3,2.2,46.9,1.8c5.7-0.1,11.3-0.5,16.9-1.2c8-1,15.3-3.6,21.7-9.1c8.8-7.6,18.3-14.4,27.4-21.7
		c3.2-2.5,6.4-3.4,10.2-2.1c10.6,3.8,20.2,1.8,29.3-4.4c10.1-6.8,20.8-7.6,32.4-4c12.2,3.9,23.1,10.1,33.7,17
		c7.4,4.8,14.8,9.6,22.3,14.2c18,11,37.9,13.9,58.5,13.6c16.2-0.2,32.3-0.7,48.5-1.3c3.7-0.1,5.3,0.7,4.6,4.5c-0.2,1.5-0.2,3,0,4.5
		c0.3,2.4-0.6,3.1-3,3.1C381.5,108.4,370.1,108.5,358.8,108.5z"/>
	<path fill="#FFFFFF" d="M350.1,123.5c-13.5,0-27,0.1-40.5-0.1c-6.8-0.1-12.9-3.2-19.1-5.4c-9.1-3.2-17.7-7.6-26.1-12.5
		c-8.3-4.8-16.9-6.8-26.3-3.4c-0.3,0.1-0.7,0.1-1,0.2c-12,4.5-23.2,3.2-34.2-3.8c-13.6-8.7-27.4-7.8-40.8,1
		c-5.3,3.5-10.8,6.6-16.1,10.1c-12.9,8.6-27.3,12-42.5,12.8c-22.3,1.2-44.6-0.8-66.9-1c-2,0-2.9-0.4-3-2.7c-0.7-9.5-0.8-9.6,8.8-9.2
		c15.6,0.5,31.3,1.3,46.9,1.9c20.9,0.8,40.2-4,57.5-16.2c7.9-5.6,16.3-10.2,25.7-13c8.9-2.7,17.4-2.2,25.7,1.8
		c4.5,2.2,9,4.3,13.4,6.6c7.5,3.9,15.2,4.2,23.2,1.7c3.6-1.2,7.3-2.1,11-3c4.9-1.2,9.5-0.4,14,1.8c11.6,5.7,22.9,12.1,35,17.1
		c7,2.9,14.1,4.5,21.8,4.4c24.5-0.3,49,0,73.5-0.2c4.8-0.1,6.1,1.5,5.5,5.8c-0.1,0.7-0.1,1.3,0,2c0.6,3.4-0.7,4.5-4.3,4.4
		c-13.8-0.2-27.7-0.1-41.5-0.1C350.1,124.1,350.1,123.8,350.1,123.5z"/>
	<path fill="#FFFFFF" d="M349.4,139.7c-5.2,0-10.4-0.4-15.5,0.1c-26.3,2.2-51-6-76.1-11.7c-10-2.3-19.9-5.3-30.2-6.6
		c-19.7-2.4-39,0.9-57.7,6.5c-34.4,10.4-69.5,11.4-104.9,10.1c-9-0.3-18-0.6-27-0.4c-3.5,0-4.9-1-4.3-4.4c0.1-0.5,0.1-1,0-1.5
		c-0.8-4.8,0.6-6.6,6-6.3c12,0.8,24,0.5,36,1.1c33,1.5,65.4-2.1,97.2-11.3c25.7-7.5,51.6-8.8,77.8-0.9c16.4,4.9,33.2,8.3,49.9,12.4
		c2.1,0.5,4.2,0.8,6.4,0.8c28,0.3,56,0.8,84,0.8c7,0,4.3,4.3,4.8,7.5c0.7,4.1-1.2,4.8-4.9,4.8c-13.8-0.2-27.7-0.1-41.5-0.1
		C349.4,140.2,349.4,139.9,349.4,139.7z"/>
	<path fill="#FFFFFF" d="M393.1,156.5H37.5c-3,0-5.5-2.5-5.5-5.5v0c0-3,2.5-5.5,5.5-5.5h355.6c3,0,5.5,2.5,5.5,5.5v0
		C398.6,154,396.1,156.5,393.1,156.5z"/>
</g>
</svg>
