<?xml version="1.0" encoding="utf-8"?>
<!-- Generator: Adobe Illustrator 18.0.0, SVG Export Plug-In . SVG Version: 6.00 Build 0)  -->
<!DOCTYPE svg PUBLIC "-//W3C//DTD SVG 1.1//EN" "http://www.w3.org/Graphics/SVG/1.1/DTD/svg11.dtd">
<svg version="1.1" id="Capa_1" xmlns="http://www.w3.org/2000/svg" xmlns:xlink="http://www.w3.org/1999/xlink" x="0px" y="0px"
	 viewBox="186.8 181.9 191.7 214.1" enable-background="new 186.8 181.9 191.7 214.1" xml:space="preserve">
<path fill="#FFFFFF" d="M366.8,226.9L294.3,185c-7.2-4.2-16-4.2-23.2,0l-72.6,41.9c-7.2,4.2-11.6,11.8-11.6,20.1v83.8
	c0,8.3,4.4,16,11.6,20.1l72.6,41.9c7.2,4.2,16,4.2,23.2,0l72.6-41.9c7.2-4.2,11.6-11.8,11.6-20.1V247
	C378.5,238.7,374,231.1,366.8,226.9z M357.5,316.4c0,7.5-4,14.5-10.6,18.2l-46.8,27c-0.1,6.6-4.9,12.1-11.4,13.2s-12.8-2.6-15-8.8
	s0.2-13.1,5.9-16.4c5.7-3.3,12.9-2.2,17.2,2.8l45.3-26.2c3.5-2,5.7-5.8,5.7-9.9v-57.9c0-4.1-2.2-7.8-5.7-9.9l-50.1-28.9
	c-3.5-2-7.9-2-11.4,0l-50.1,28.9c-3.5,2-5.7,5.8-5.7,9.9v43.7h0c0.1,5,1.1,8.3,2.9,9.4c2.5,1.4,7.8-0.8,10.1-2.2l0.2-0.1l34.8-19.8
	c-1.2-6.5,2.5-12.9,8.7-15.2s13.1,0.1,16.5,5.8c3.4,5.7,2.2,12.9-2.7,17.3s-12.3,4.5-17.5,0.4l-34.9,19.8c-1.6,1-11.8,7-19.9,2.4
	c-5.4-3-8-9.6-7.8-19.4h0v-42c0-7.5,4-14.5,10.5-18.2l50.1-28.9c6.5-3.8,14.5-3.8,21.1,0l50.1,28.9c6.5,3.8,10.5,10.7,10.5,18.3
	V316.4z"/>
</svg>
