<?xml version="1.0" encoding="utf-8"?>
<!-- Generator: Adobe Illustrator 18.0.0, SVG Export Plug-In . SVG Version: 6.00 Build 0)  -->
<!DOCTYPE svg PUBLIC "-//W3C//DTD SVG 1.1 Tiny//EN" "http://www.w3.org/Graphics/SVG/1.1/DTD/svg11-tiny.dtd">
<svg version="1.1" baseProfile="tiny" id="Capa_1" xmlns="http://www.w3.org/2000/svg" xmlns:xlink="http://www.w3.org/1999/xlink"
	 x="0px" y="0px" viewBox="0 0 911 179" xml:space="preserve">
<g>
	<path fill="#2B3103" d="M35.2,90.2c-1.3-11.9-1.3-12,10-11.6c16.3,0.6,32.6,1.5,48.9-0.1c11.4-1.1,21.5-4.1,30.1-12.5
		c12.3-11.9,25.9-22.5,38.4-34.3c5.7-5.4,11.5-6.1,18.3-4c4.4,1.4,8.8,3,13.2,4.6c3.1,1.1,5.5,0.7,8.2-1.5c7.9-6.2,16.2-11.8,24-18
		c3.8-3,7.5-3.2,11.6-2c6.3,1.8,11.3,5.6,16,9.9c8.9,8.1,16.6,17.3,24.8,26c4.9,5.2,10.2,10,15.1,15.3c13,14.2,29.5,18.9,48.1,19.2
		c16.3,0.2,32.7-0.6,49-1.1c4.2-0.1,5.8,0.9,5.1,5.1c-0.2,1.5-0.1,3,0,4.5c0.2,2-0.6,2.6-2.6,2.6c-26.6,0-53.3,1.3-79.8-3.3
		c-2.8-0.5-5.4-1.5-7.9-3c-15.5-8.8-27.4-21.5-38.4-35.3c-8-10-16.3-19.8-26.9-27.3c-2.6-1.9-4.9-2.1-7.8-0.9
		c-5.4,2.2-10.8,4.8-14.7,9.2c-11.4,13.2-24.9,13.9-39.7,7.2c-3.6-1.6-6.1-1-9.1,0.9c-7.4,4.7-13.5,10.8-19.4,17.1
		c-6.9,7.3-13.3,14.9-21.1,21.2c-9.8,7.9-21,11.9-33.6,12.2c-11.5,0.3-23-0.7-34.5-1.3C52,88.8,43.5,88.7,35.2,90.2z"/>
	<path fill="#2E5902" d="M358.8,108.5c-19.5,0.9-39,0.8-58-4.5c-11.1-3.1-20.7-8.8-30.1-15.2c-10.3-7-20.3-14.5-31.6-19.9
		c-4.5-2.1-9.2-3.8-14.1-5c-9.7-2.6-18.9-1.8-27,4.5c-7.7,5.9-16.1,7.4-25.4,4.7c-8.1-2.3-14.7,0.1-20,6.5
		c-7.2,8.7-15.8,15.6-25.7,21.1c-5.4,3-11,4.4-17.1,4.8c-24.3,1.6-48.6,0.1-73,0.1c-2.4,0-3-0.7-2.9-3.1c0.5-9.1,0.4-9.2,9.4-8.8
		c15.6,0.8,31.3,2.2,46.9,1.8c5.7-0.1,11.3-0.5,16.9-1.2c8-1,15.3-3.6,21.7-9.1c8.8-7.6,18.3-14.4,27.4-21.7
		c3.2-2.5,6.4-3.4,10.2-2.1c10.6,3.8,20.2,1.8,29.3-4.4c10.1-6.8,20.8-7.6,32.4-4c12.2,3.9,23.1,10.1,33.7,17
		c7.4,4.8,14.8,9.6,22.3,14.2c18,11,37.9,13.9,58.5,13.6c16.2-0.2,32.3-0.7,48.5-1.3c3.7-0.1,5.3,0.7,4.6,4.5c-0.2,1.5-0.2,3,0,4.5
		c0.3,2.4-0.6,3.1-3,3.1C381.5,108.4,370.1,108.5,358.8,108.5z"/>
	<path fill="#688F05" d="M350.1,123.5c-13.5,0-27,0.1-40.5-0.1c-6.8-0.1-12.9-3.2-19.1-5.4c-9.1-3.2-17.7-7.6-26.1-12.5
		c-8.3-4.8-16.9-6.8-26.3-3.4c-0.3,0.1-0.7,0.1-1,0.2c-12,4.5-23.2,3.2-34.2-3.8c-13.6-8.7-27.4-7.8-40.8,1
		c-5.3,3.5-10.8,6.6-16.1,10.1c-12.9,8.6-27.3,12-42.5,12.8c-22.3,1.2-44.6-0.8-66.9-1c-2,0-2.9-0.4-3-2.7c-0.7-9.5-0.8-9.6,8.8-9.2
		c15.6,0.5,31.3,1.3,46.9,1.9c20.9,0.8,40.2-4,57.5-16.2c7.9-5.6,16.3-10.2,25.7-13c8.9-2.7,17.4-2.2,25.7,1.8
		c4.5,2.2,9,4.3,13.4,6.6c7.5,3.9,15.2,4.2,23.2,1.7c3.6-1.2,7.3-2.1,11-3c4.9-1.2,9.5-0.4,14,1.8c11.6,5.7,22.9,12.1,35,17.1
		c7,2.9,14.1,4.5,21.8,4.4c24.5-0.3,49,0,73.5-0.2c4.8-0.1,6.1,1.5,5.5,5.8c-0.1,0.7-0.1,1.3,0,2c0.6,3.4-0.7,4.5-4.3,4.4
		c-13.8-0.2-27.7-0.1-41.5-0.1C350.1,124.1,350.1,123.8,350.1,123.5z"/>
	<path fill="#38825C" d="M349.4,139.7c-5.2,0-10.4-0.4-15.5,0.1c-26.3,2.2-51-6-76.1-11.7c-10-2.3-19.9-5.3-30.2-6.6
		c-19.7-2.4-39,0.9-57.7,6.5c-34.4,10.4-69.5,11.4-104.9,10.1c-9-0.3-18-0.6-27-0.4c-3.5,0-4.9-1-4.3-4.4c0.1-0.5,0.1-1,0-1.5
		c-0.8-4.8,0.6-6.6,6-6.3c12,0.8,24,0.5,36,1.1c33,1.5,65.4-2.1,97.2-11.3c25.7-7.5,51.6-8.8,77.8-0.9c16.4,4.9,33.2,8.3,49.9,12.4
		c2.1,0.5,4.2,0.8,6.4,0.8c28,0.3,56,0.8,84,0.8c7,0,4.3,4.3,4.8,7.5c0.7,4.1-1.2,4.8-4.9,4.8c-13.8-0.2-27.7-0.1-41.5-0.1
		C349.4,140.2,349.4,139.9,349.4,139.7z"/>
	<path fill="#12779F" d="M393.1,156.5H37.5c-3,0-5.5-2.5-5.5-5.5v0c0-3,2.5-5.5,5.5-5.5h355.6c3,0,5.5,2.5,5.5,5.5v0
		C398.6,154,396.1,156.5,393.1,156.5z"/>
</g>
<g>
	<path fill="#9B9B9B" d="M400.7,97.6V86.4c0-3.2,0.8-5.5,2.5-7c1.7-1.5,4-2.2,6.8-2.2c2.9,0,5.1,0.7,6.8,2.2c1.7,1.5,2.6,3.8,2.6,7
		v11.2c0,3.2-0.9,5.5-2.6,7c-1.7,1.5-4,2.2-6.8,2.2c-2.9,0-5.1-0.7-6.8-2.2C401.5,103.1,400.7,100.8,400.7,97.6z M405.9,97.6
		c0,3.1,1.4,4.6,4.2,4.6c2.8,0,4.2-1.5,4.2-4.6V86.4c0-3.1-1.4-4.6-4.2-4.6c-2.8,0-4.2,1.5-4.2,4.6V97.6z"/>
	<path fill="#9B9B9B" d="M423.9,104.9v-26c0-0.5,0.2-0.9,0.7-1.2s1-0.4,1.6-0.4h7.7c5.4,0,8,2.3,8,7c0,3.3-1.1,5.4-3.4,6.4
		c1.4,0.5,2.4,1.3,3.1,2.3c0.7,1,1,2.4,1,4.3V98c0,3-0.7,5.1-2.2,6.5c-1.4,1.3-3.4,2-5.8,2h-8.5c-0.7,0-1.2-0.2-1.6-0.5
		S423.9,105.3,423.9,104.9z M429,88.6h4.5c1,0,1.8-0.3,2.4-0.9c0.5-0.6,0.8-1.5,0.8-2.5c0-1-0.3-1.9-0.9-2.5
		c-0.6-0.6-1.4-0.9-2.4-0.9H429V88.6z M429,102h4.5c2.6,0,3.9-1.5,3.9-4.4V97c0-1.5-0.3-2.6-1-3.2c-0.7-0.7-1.6-1-2.9-1H429V102z"/>
	<path fill="#9B9B9B" d="M444.9,101.9c0-0.6,0.2-1.2,0.7-1.9c0.5-0.6,1-0.9,1.6-0.9c0.3,0,0.7,0.2,1.2,0.5c0.4,0.3,0.9,0.7,1.3,1.1
		c0.4,0.4,1,0.8,1.8,1.1c0.8,0.3,1.6,0.5,2.6,0.5c1.3,0,2.3-0.3,3.2-0.9c0.9-0.6,1.3-1.5,1.3-2.6c0-0.8-0.2-1.5-0.7-2.1
		c-0.5-0.6-1.1-1.1-1.8-1.6c-0.8-0.4-1.6-0.8-2.5-1.2c-0.9-0.4-1.8-0.8-2.7-1.3s-1.8-1-2.5-1.6c-0.8-0.6-1.4-1.4-1.8-2.4
		s-0.7-2.1-0.7-3.4c0-1.4,0.3-2.7,0.9-3.8s1.3-1.9,2.3-2.6s2-1.1,3.1-1.3c1.1-0.3,2.3-0.4,3.5-0.4c0.7,0,1.4,0,2.2,0.1
		c0.8,0.1,1.6,0.3,2.5,0.5c0.9,0.2,1.6,0.6,2.1,1c0.5,0.5,0.8,1,0.8,1.6c0,0.6-0.2,1.2-0.6,1.8c-0.4,0.6-0.9,1-1.5,1
		c-0.2,0-0.9-0.3-2-0.8c-1.1-0.5-2.3-0.8-3.6-0.8c-1.4,0-2.6,0.3-3.3,0.8c-0.8,0.5-1.2,1.3-1.2,2.3c0,0.8,0.3,1.4,1,2
		c0.6,0.6,1.4,1,2.4,1.4c0.9,0.4,2,0.8,3.1,1.4c1.1,0.5,2.1,1.1,3.1,1.8c0.9,0.6,1.7,1.6,2.4,2.8c0.6,1.2,1,2.6,1,4.3
		c0,2.7-0.9,4.8-2.6,6.3c-1.7,1.5-4,2.2-6.9,2.2c-2.5,0-4.7-0.5-6.5-1.6C445.8,104.3,444.9,103.1,444.9,101.9z"/>
	<path fill="#9B9B9B" d="M467.2,104.9v-26c0-0.5,0.2-0.9,0.7-1.2s1-0.4,1.6-0.4h14.2c0.5,0,0.9,0.2,1.2,0.7c0.3,0.5,0.4,1,0.4,1.6
		c0,0.6-0.1,1.2-0.4,1.6c-0.3,0.5-0.7,0.7-1.2,0.7h-11.3v8h6.1c0.5,0,0.9,0.2,1.2,0.6c0.3,0.4,0.4,0.9,0.4,1.5c0,0.5-0.1,1-0.4,1.4
		c-0.3,0.4-0.7,0.6-1.2,0.6h-6.1v8h11.3c0.5,0,0.9,0.2,1.2,0.7c0.3,0.5,0.4,1,0.4,1.6c0,0.6-0.1,1.1-0.4,1.6
		c-0.3,0.5-0.7,0.7-1.2,0.7h-14.2c-0.6,0-1.1-0.1-1.6-0.4C467.5,105.8,467.2,105.4,467.2,104.9z"/>
	<path fill="#9B9B9B" d="M488.4,104.9v-26c0-0.4,0.2-0.8,0.5-1.1c0.3-0.3,0.7-0.5,1.2-0.5h7.9c6.3,0,9.5,2.8,9.5,8.4
		c0,2.2-0.5,3.9-1.4,5.3c-0.9,1.3-2.2,2.2-3.8,2.7l5.2,9.7c0.1,0.2,0.2,0.4,0.2,0.6c0,0.7-0.3,1.3-1,1.9c-0.7,0.6-1.4,0.9-2.2,0.9
		s-1.4-0.4-1.8-1.2l-5.7-11h-3.4v10.4c0,0.5-0.3,0.9-0.8,1.2c-0.5,0.3-1.1,0.4-1.8,0.4c-0.7,0-1.3-0.1-1.8-0.4
		C488.7,105.8,488.4,105.4,488.4,104.9z M493.6,90.4h4.4c2.9,0,4.3-1.4,4.3-4.2c0-2.9-1.4-4.3-4.3-4.3h-4.4V90.4z"/>
	<path fill="#9B9B9B" d="M509.2,79.4c0-0.6,0.4-1.1,1.1-1.5c0.7-0.4,1.4-0.6,2.2-0.6c1,0,1.6,0.3,1.8,1l6.1,21.7l6.1-21.7
		c0.2-0.7,0.8-1,1.8-1c0.7,0,1.5,0.2,2.2,0.6c0.7,0.4,1.1,0.9,1.1,1.5c0,0.1,0,0.2-0.1,0.4l-7.7,25.2c-0.2,0.6-0.6,1-1.2,1.3
		c-0.6,0.3-1.4,0.5-2.2,0.5c-1.8,0-3-0.6-3.4-1.8l-7.7-25.2C509.2,79.6,509.2,79.5,509.2,79.4z"/>
	<path fill="#9B9B9B" d="M530.1,104.2c0-0.1,0-0.2,0.1-0.4l7.7-25.2c0.2-0.5,0.6-0.9,1.2-1.2c0.6-0.3,1.3-0.4,2.1-0.4
		s1.5,0.2,2.2,0.5c0.6,0.3,1,0.7,1.2,1.3l7.7,25.2c0.1,0.2,0.1,0.3,0.1,0.4c0,0.6-0.4,1.1-1.1,1.5c-0.7,0.4-1.5,0.6-2.2,0.6
		c-1,0-1.6-0.3-1.8-1l-1.5-5.3h-8.6l-1.5,5.3c-0.2,0.7-0.9,1-2,1c-0.9,0-1.7-0.2-2.5-0.7C530.5,105.4,530.1,104.9,530.1,104.2z
		 M538.4,96.1h6.9l-3.5-12.3L538.4,96.1z"/>
	<path fill="#9B9B9B" d="M551.4,79.5c0-0.6,0.1-1.1,0.4-1.6c0.3-0.5,0.7-0.7,1.2-0.7H570c0.5,0,0.9,0.2,1.2,0.7s0.4,1,0.4,1.6
		c0,0.6-0.1,1.2-0.4,1.6c-0.3,0.5-0.7,0.7-1.2,0.7h-5.8v23c0,0.5-0.3,0.9-0.8,1.2c-0.5,0.3-1.1,0.4-1.8,0.4c-0.7,0-1.3-0.1-1.8-0.4
		c-0.5-0.3-0.8-0.7-0.8-1.2v-23h-5.9c-0.5,0-0.9-0.2-1.2-0.7C551.6,80.7,551.4,80.2,551.4,79.5z"/>
	<path fill="#9B9B9B" d="M573.7,97.6V86.4c0-3.2,0.8-5.5,2.5-7c1.7-1.5,4-2.2,6.8-2.2c2.9,0,5.1,0.7,6.8,2.2c1.7,1.5,2.6,3.8,2.6,7
		v11.2c0,3.2-0.9,5.5-2.6,7c-1.7,1.5-4,2.2-6.8,2.2c-2.9,0-5.1-0.7-6.8-2.2C574.5,103.1,573.7,100.8,573.7,97.6z M578.9,97.6
		c0,3.1,1.4,4.6,4.2,4.6c2.8,0,4.2-1.5,4.2-4.6V86.4c0-3.1-1.4-4.6-4.2-4.6c-2.8,0-4.2,1.5-4.2,4.6V97.6z"/>
	<path fill="#9B9B9B" d="M596.9,104.9v-26c0-0.4,0.2-0.8,0.5-1.1c0.3-0.3,0.7-0.5,1.2-0.5h7.9c6.3,0,9.5,2.8,9.5,8.4
		c0,2.2-0.5,3.9-1.4,5.3c-0.9,1.3-2.2,2.2-3.8,2.7l5.2,9.7c0.1,0.2,0.2,0.4,0.2,0.6c0,0.7-0.3,1.3-1,1.9c-0.7,0.6-1.4,0.9-2.2,0.9
		c-0.8,0-1.4-0.4-1.8-1.2l-5.7-11h-3.4v10.4c0,0.5-0.3,0.9-0.8,1.2c-0.5,0.3-1.1,0.4-1.8,0.4c-0.7,0-1.3-0.1-1.8-0.4
		C597.1,105.8,596.9,105.4,596.9,104.9z M602.1,90.4h4.4c2.9,0,4.3-1.4,4.3-4.2c0-2.9-1.4-4.3-4.3-4.3h-4.4V90.4z"/>
	<path fill="#9B9B9B" d="M619.7,104.9v-26c0-0.5,0.3-0.9,0.8-1.2c0.5-0.3,1.1-0.4,1.8-0.4c0.7,0,1.3,0.1,1.8,0.4s0.8,0.7,0.8,1.2v26
		c0,0.5-0.3,0.9-0.8,1.2c-0.5,0.3-1.1,0.4-1.8,0.4c-0.7,0-1.3-0.1-1.8-0.4C619.9,105.8,619.7,105.4,619.7,104.9z"/>
	<path fill="#9B9B9B" d="M629.4,97.6V86.4c0-3.2,0.8-5.5,2.5-7c1.7-1.5,4-2.2,6.8-2.2c2.9,0,5.1,0.7,6.8,2.2c1.7,1.5,2.6,3.8,2.6,7
		v11.2c0,3.2-0.9,5.5-2.6,7c-1.7,1.5-4,2.2-6.8,2.2c-2.9,0-5.1-0.7-6.8-2.2C630.2,103.1,629.4,100.8,629.4,97.6z M634.6,97.6
		c0,3.1,1.4,4.6,4.2,4.6c2.8,0,4.2-1.5,4.2-4.6V86.4c0-3.1-1.4-4.6-4.2-4.6c-2.8,0-4.2,1.5-4.2,4.6V97.6z"/>
	<path fill="#9B9B9B" d="M660.6,104.9v-26c0-0.4,0.2-0.8,0.6-1.1c0.4-0.3,1-0.5,1.6-0.5h7.1c2.9,0,5.1,0.7,6.8,2.2
		c1.7,1.5,2.6,3.8,2.6,7v10.9c0,3.2-0.9,5.5-2.6,7c-1.7,1.5-4,2.2-6.8,2.2h-7.1c-0.7,0-1.2-0.2-1.6-0.5
		C660.8,105.7,660.6,105.3,660.6,104.9z M665.8,102h4.2c2.8,0,4.2-1.5,4.2-4.6V86.4c0-3.1-1.4-4.6-4.2-4.6h-4.2V102z"/>
	<path fill="#9B9B9B" d="M683.8,104.9v-26c0-0.5,0.2-0.9,0.7-1.2s1-0.4,1.6-0.4h14.2c0.5,0,0.9,0.2,1.2,0.7c0.3,0.5,0.4,1,0.4,1.6
		c0,0.6-0.1,1.2-0.4,1.6c-0.3,0.5-0.7,0.7-1.2,0.7H689v8h6.1c0.5,0,0.9,0.2,1.2,0.6c0.3,0.4,0.4,0.9,0.4,1.5c0,0.5-0.1,1-0.4,1.4
		c-0.3,0.4-0.7,0.6-1.2,0.6H689v8h11.3c0.5,0,0.9,0.2,1.2,0.7c0.3,0.5,0.4,1,0.4,1.6c0,0.6-0.1,1.1-0.4,1.6
		c-0.3,0.5-0.7,0.7-1.2,0.7H686c-0.6,0-1.1-0.1-1.6-0.4C684,105.8,683.8,105.4,683.8,104.9z"/>
	<path fill="#9B9B9B" d="M713,104.9v-26c0-0.5,0.3-0.9,0.8-1.2c0.5-0.3,1.1-0.4,1.8-0.4c0.7,0,1.3,0.1,1.8,0.4
		c0.5,0.3,0.8,0.7,0.8,1.2V102h9.8c0.5,0,0.9,0.2,1.1,0.7c0.3,0.5,0.4,1,0.4,1.6c0,0.6-0.1,1.1-0.4,1.6c-0.3,0.5-0.7,0.7-1.1,0.7
		h-12.7c-0.6,0-1.1-0.1-1.6-0.4C713.2,105.8,713,105.4,713,104.9z"/>
	<path fill="#9B9B9B" d="M729.7,104.2c0-0.1,0-0.2,0.1-0.4l7.7-25.2c0.2-0.5,0.6-0.9,1.2-1.2c0.6-0.3,1.3-0.4,2.1-0.4
		s1.5,0.2,2.2,0.5c0.6,0.3,1,0.7,1.2,1.3l7.7,25.2c0.1,0.2,0.1,0.3,0.1,0.4c0,0.6-0.4,1.1-1.1,1.5c-0.7,0.4-1.5,0.6-2.2,0.6
		c-1,0-1.6-0.3-1.8-1l-1.5-5.3h-8.6l-1.5,5.3c-0.2,0.7-0.9,1-2,1c-0.9,0-1.7-0.2-2.5-0.7C730.1,105.4,729.7,104.9,729.7,104.2z
		 M738,96.1h6.9l-3.5-12.3L738,96.1z"/>
	<path fill="#9B9B9B" d="M763,97.6V86.4c0-3.1,0.9-5.5,2.6-6.9c1.7-1.5,3.9-2.2,6.7-2.2c2.8,0,5.1,0.7,6.9,2.1
		c1.8,1.4,2.7,3.2,2.7,5.5c0,1-0.2,1.7-0.6,2c-0.4,0.4-1.1,0.5-2,0.5c-1.7,0-2.6-0.5-2.6-1.6c0-0.3-0.1-0.6-0.1-0.9
		c0-0.3-0.1-0.6-0.3-1c-0.2-0.4-0.4-0.8-0.7-1c-0.3-0.3-0.7-0.5-1.2-0.7c-0.5-0.2-1.2-0.3-1.9-0.3c-2.8,0-4.2,1.5-4.2,4.6v11.2
		c0,3.1,1.4,4.6,4.3,4.6c0.9,0,1.6-0.1,2.1-0.4c0.6-0.3,1-0.6,1.2-1.1c0.3-0.5,0.4-0.9,0.5-1.3c0.1-0.4,0.2-0.9,0.2-1.4
		c0.1-1.1,0.9-1.6,2.6-1.6c0.9,0,1.6,0.2,2,0.5c0.4,0.4,0.6,1,0.6,2c0,2.4-0.9,4.3-2.7,5.8s-4.1,2.2-6.9,2.2c-2.7,0-5-0.7-6.7-2.2
		C763.9,103.1,763,100.7,763,97.6z"/>
	<path fill="#9B9B9B" d="M785.2,97.6V78.9c0-0.5,0.3-0.9,0.8-1.2s1.1-0.4,1.8-0.4c0.7,0,1.3,0.1,1.8,0.4c0.5,0.3,0.8,0.7,0.8,1.2
		v18.7c0,3.1,1.5,4.6,4.4,4.6s4.4-1.5,4.4-4.6V78.9c0-0.5,0.3-0.9,0.8-1.2s1.1-0.4,1.8-0.4c0.7,0,1.3,0.1,1.8,0.4
		c0.5,0.3,0.8,0.7,0.8,1.2v18.7c0,3.1-0.9,5.5-2.6,6.9c-1.7,1.5-4.1,2.2-7,2.2s-5.2-0.7-7-2.2C786.1,103.1,785.2,100.8,785.2,97.6z"
		/>
	<path fill="#9B9B9B" d="M809.1,104.9v-26c0-0.5,0.2-0.9,0.7-1.2s1-0.4,1.6-0.4h14.2c0.5,0,0.9,0.2,1.2,0.7c0.3,0.5,0.4,1,0.4,1.6
		c0,0.6-0.1,1.2-0.4,1.6c-0.3,0.5-0.7,0.7-1.2,0.7h-11.3v8h6.1c0.5,0,0.9,0.2,1.2,0.6c0.3,0.4,0.4,0.9,0.4,1.5c0,0.5-0.1,1-0.4,1.4
		c-0.3,0.4-0.7,0.6-1.2,0.6h-6.1v8h11.3c0.5,0,0.9,0.2,1.2,0.7c0.3,0.5,0.4,1,0.4,1.6c0,0.6-0.1,1.1-0.4,1.6
		c-0.3,0.5-0.7,0.7-1.2,0.7h-14.2c-0.6,0-1.1-0.1-1.6-0.4C809.3,105.8,809.1,105.4,809.1,104.9z"/>
	<path fill="#9B9B9B" d="M830.3,104.9v-26c0-0.5,0.3-0.9,0.8-1.2c0.5-0.3,1.1-0.4,1.8-0.4c1,0,1.7,0.2,2.2,0.5
		c0.5,0.3,1.1,1.1,1.7,2.2l7.7,14.9V78.9c0-0.5,0.3-0.9,0.8-1.2c0.5-0.3,1.1-0.4,1.8-0.4s1.3,0.1,1.8,0.4s0.8,0.7,0.8,1.2v26
		c0,0.5-0.3,0.9-0.8,1.2c-0.5,0.3-1.1,0.4-1.8,0.4c-1.4,0-2.4-0.5-3-1.6l-8.6-16.1v16.1c0,0.5-0.3,0.9-0.8,1.2
		c-0.5,0.3-1.1,0.4-1.8,0.4c-0.7,0-1.3-0.1-1.8-0.4C830.5,105.8,830.3,105.4,830.3,104.9z"/>
	<path fill="#9B9B9B" d="M854.2,97.6V86.4c0-3.1,0.9-5.5,2.6-6.9c1.7-1.5,3.9-2.2,6.7-2.2c2.8,0,5.1,0.7,6.9,2.1
		c1.8,1.4,2.7,3.2,2.7,5.5c0,1-0.2,1.7-0.6,2c-0.4,0.4-1.1,0.5-2,0.5c-1.7,0-2.6-0.5-2.6-1.6c0-0.3-0.1-0.6-0.1-0.9
		c0-0.3-0.1-0.6-0.3-1c-0.2-0.4-0.4-0.8-0.7-1c-0.3-0.3-0.7-0.5-1.2-0.7c-0.5-0.2-1.2-0.3-1.9-0.3c-2.8,0-4.2,1.5-4.2,4.6v11.2
		c0,3.1,1.4,4.6,4.3,4.6c0.9,0,1.6-0.1,2.1-0.4c0.6-0.3,1-0.6,1.2-1.1c0.3-0.5,0.4-0.9,0.5-1.3c0.1-0.4,0.2-0.9,0.2-1.4
		c0.1-1.1,0.9-1.6,2.6-1.6c0.9,0,1.6,0.2,2,0.5c0.4,0.4,0.6,1,0.6,2c0,2.4-0.9,4.3-2.7,5.8s-4.1,2.2-6.9,2.2c-2.7,0-5-0.7-6.7-2.2
		C855,103.1,854.2,100.7,854.2,97.6z"/>
	<path fill="#9B9B9B" d="M873.8,104.2c0-0.1,0-0.2,0.1-0.4l7.7-25.2c0.2-0.5,0.6-0.9,1.2-1.2c0.6-0.3,1.3-0.4,2.1-0.4
		s1.5,0.2,2.2,0.5c0.6,0.3,1,0.7,1.2,1.3L896,104c0.1,0.2,0.1,0.3,0.1,0.4c0,0.6-0.4,1.1-1.1,1.5c-0.7,0.4-1.5,0.6-2.2,0.6
		c-1,0-1.6-0.3-1.8-1l-1.5-5.3H881l-1.5,5.3c-0.2,0.7-0.9,1-2,1c-0.9,0-1.7-0.2-2.5-0.7C874.2,105.4,873.8,104.9,873.8,104.2z
		 M882.1,96.1h6.9l-3.5-12.3L882.1,96.1z"/>
</g>
<g>
	<path d="M401.1,144.3v-13.4c0-3.8,1-6.6,3.1-8.3c2-1.8,4.7-2.7,8-2.7c3.4,0,6.1,0.8,8.2,2.5c2.1,1.7,3.2,3.9,3.2,6.6
		c0,1.2-0.2,2-0.7,2.4c-0.5,0.4-1.3,0.6-2.4,0.6c-2,0-3.1-0.7-3.1-2c0-0.4-0.1-0.8-0.1-1.1c0-0.3-0.2-0.7-0.4-1.2
		c-0.2-0.5-0.5-0.9-0.8-1.2c-0.3-0.3-0.8-0.6-1.4-0.9c-0.6-0.2-1.4-0.4-2.3-0.4c-3.4,0-5,1.8-5,5.5v13.4c0,3.7,1.7,5.5,5.1,5.5
		c1,0,1.9-0.2,2.6-0.5c0.7-0.3,1.2-0.8,1.5-1.4c0.3-0.6,0.5-1.1,0.6-1.6c0.1-0.5,0.2-1,0.2-1.7c0.1-1.3,1.1-2,3.1-2
		c1.1,0,1.9,0.2,2.4,0.6c0.5,0.4,0.7,1.2,0.7,2.4c0,2.9-1.1,5.2-3.2,6.9s-4.9,2.6-8.3,2.6c-3.3,0-6-0.9-8-2.7
		C402.2,150.8,401.1,148.1,401.1,144.3z"/>
	<path d="M427.9,153v-31.2c0-0.6,0.3-1.1,0.9-1.4c0.6-0.3,1.3-0.5,2.2-0.5c0.9,0,1.6,0.2,2.2,0.5c0.6,0.3,0.9,0.8,0.9,1.4v12.5h10.8
		v-12.5c0-0.6,0.3-1.1,0.9-1.4c0.6-0.3,1.3-0.5,2.2-0.5c0.9,0,1.6,0.2,2.2,0.5c0.6,0.3,0.9,0.8,0.9,1.4V153c0,0.6-0.3,1.1-0.9,1.4
		c-0.6,0.4-1.4,0.5-2.2,0.5c-0.9,0-1.6-0.2-2.2-0.5c-0.6-0.4-0.9-0.8-0.9-1.4v-13.8h-10.8V153c0,0.6-0.3,1.1-0.9,1.4
		c-0.6,0.4-1.4,0.5-2.2,0.5c-0.9,0-1.6-0.2-2.2-0.5C428.2,154.1,427.9,153.6,427.9,153z"/>
	<path d="M453.7,152.2c0-0.1,0-0.2,0.1-0.5l9.3-30.2c0.2-0.6,0.7-1.1,1.4-1.4c0.8-0.3,1.6-0.5,2.6-0.5s1.8,0.2,2.6,0.6
		c0.8,0.4,1.2,0.9,1.4,1.6l9.3,30.2c0.1,0.3,0.1,0.4,0.1,0.5c0,0.7-0.4,1.3-1.3,1.8c-0.9,0.5-1.7,0.8-2.6,0.8
		c-1.2,0-1.9-0.4-2.1-1.2l-1.8-6.4h-10.3l-1.8,6.4c-0.3,0.8-1,1.2-2.4,1.2c-1,0-2-0.3-3-0.8S453.7,153,453.7,152.2z M463.7,142.5
		h8.3l-4.2-14.7L463.7,142.5z"/>
	<path d="M484.5,153v-31.2c0-0.6,0.3-1.1,0.9-1.5c0.6-0.3,1.3-0.5,2.2-0.5c1.2,0,2,0.2,2.6,0.6c0.6,0.4,1.3,1.3,2,2.7l9.3,17.9
		v-19.3c0-0.6,0.3-1.1,0.9-1.4c0.6-0.3,1.3-0.5,2.2-0.5c0.9,0,1.6,0.2,2.2,0.5c0.6,0.3,0.9,0.8,0.9,1.4V153c0,0.6-0.3,1.1-0.9,1.4
		c-0.6,0.4-1.4,0.5-2.2,0.5c-1.7,0-2.9-0.7-3.6-2l-10.3-19.3V153c0,0.6-0.3,1.1-0.9,1.4c-0.6,0.4-1.4,0.5-2.2,0.5
		c-0.9,0-1.6-0.2-2.2-0.5C484.8,154.1,484.5,153.6,484.5,153z"/>
	<path d="M513.2,144.3v-13.4c0-3.8,1-6.6,3.1-8.3c2-1.8,4.7-2.7,8-2.7c3.4,0,6.1,0.8,8.2,2.5c2.1,1.7,3.2,3.9,3.2,6.6
		c0,1.2-0.2,2-0.7,2.4c-0.5,0.4-1.3,0.6-2.4,0.6c-2,0-3.1-0.7-3.1-2c0-0.4-0.1-0.8-0.1-1.1c0-0.3-0.2-0.7-0.4-1.2
		c-0.2-0.5-0.5-0.9-0.8-1.2c-0.3-0.3-0.8-0.6-1.4-0.9c-0.6-0.2-1.4-0.4-2.3-0.4c-3.4,0-5,1.8-5,5.5v13.4c0,3.7,1.7,5.5,5.1,5.5
		c1,0,1.9-0.2,2.6-0.5c0.7-0.3,1.2-0.8,1.5-1.4c0.3-0.6,0.5-1.1,0.6-1.6c0.1-0.5,0.2-1,0.2-1.7c0.1-1.3,1.1-2,3.1-2
		c1.1,0,1.9,0.2,2.4,0.6c0.5,0.4,0.7,1.2,0.7,2.4c0,2.9-1.1,5.2-3.2,6.9s-4.9,2.6-8.3,2.6c-3.3,0-6-0.9-8-2.7
		C514.2,150.8,513.2,148.1,513.2,144.3z"/>
	<path d="M536.8,152.2c0-0.1,0-0.2,0.1-0.5l9.3-30.2c0.2-0.6,0.7-1.1,1.4-1.4c0.8-0.3,1.6-0.5,2.6-0.5s1.8,0.2,2.6,0.6
		c0.8,0.4,1.2,0.9,1.4,1.6l9.3,30.2c0.1,0.3,0.1,0.4,0.1,0.5c0,0.7-0.4,1.3-1.3,1.8c-0.9,0.5-1.7,0.8-2.6,0.8
		c-1.2,0-1.9-0.4-2.1-1.2l-1.8-6.4h-10.3l-1.8,6.4c-0.3,0.8-1,1.2-2.4,1.2c-1,0-2-0.3-3-0.8S536.8,153,536.8,152.2z M546.7,142.5
		h8.3l-4.2-14.7L546.7,142.5z"/>
	<path d="M562.1,122.5c0-0.7,0.5-1.3,1.4-1.8c0.9-0.5,1.8-0.8,2.8-0.8c0.9,0,1.5,0.4,1.9,1.2l7.3,13.9l7.3-13.9
		c0.4-0.8,1.1-1.2,1.9-1.2c0.9,0,1.8,0.3,2.8,0.8c0.9,0.5,1.4,1.1,1.4,1.8c0,0.3,0,0.5-0.1,0.6l-9.9,17.2c-0.1,0.2-0.2,0.4-0.2,0.6
		V153c0,0.6-0.3,1.1-0.9,1.4c-0.6,0.4-1.3,0.5-2.2,0.5c-0.8,0-1.6-0.2-2.2-0.5c-0.6-0.4-0.9-0.8-0.9-1.4v-12.1c0-0.3,0-0.5-0.1-0.6
		l-9.9-17.2C562.1,122.9,562.1,122.7,562.1,122.5z"/>
	<path d="M600.5,143.6c0-0.7,0.2-1.3,0.5-1.8c0.4-0.5,0.8-0.7,1.4-0.7h12.5c0.5,0,1,0.2,1.4,0.7c0.4,0.5,0.6,1.1,0.6,1.7
		c0,0.7-0.2,1.3-0.6,1.7c-0.4,0.5-0.9,0.7-1.4,0.7h-12.5c-0.6,0-1-0.2-1.4-0.7C600.7,144.9,600.5,144.3,600.5,143.6z"/>
	<path d="M631.1,153v-31.2c0-0.6,0.3-1.1,0.9-1.4c0.6-0.3,1.3-0.5,2.2-0.5c0.9,0,1.6,0.2,2.2,0.5c0.6,0.3,0.9,0.8,0.9,1.4v27.7h11.7
		c0.6,0,1,0.3,1.4,0.8c0.3,0.5,0.5,1.2,0.5,1.9c0,0.7-0.2,1.4-0.5,1.9c-0.3,0.5-0.8,0.8-1.4,0.8h-15.2c-0.7,0-1.4-0.2-1.9-0.5
		C631.4,154.1,631.1,153.6,631.1,153z"/>
	<path d="M651.2,152.2c0-0.1,0-0.2,0.1-0.5l9.3-30.2c0.2-0.6,0.7-1.1,1.4-1.4c0.8-0.3,1.6-0.5,2.6-0.5s1.8,0.2,2.6,0.6
		c0.8,0.4,1.2,0.9,1.4,1.6l9.3,30.2c0.1,0.3,0.1,0.4,0.1,0.5c0,0.7-0.4,1.3-1.3,1.8c-0.9,0.5-1.7,0.8-2.6,0.8
		c-1.2,0-1.9-0.4-2.1-1.2l-1.8-6.4h-10.3l-1.8,6.4c-0.3,0.8-1,1.2-2.4,1.2c-1,0-2-0.3-3-0.8S651.2,153,651.2,152.2z M661.1,142.5
		h8.3l-4.2-14.7L661.1,142.5z"/>
	<path d="M681.9,153v-30c0-1.1,0.3-1.8,0.9-2.4c0.6-0.5,1.3-0.8,2.2-0.8c1.2,0,2.1,0.2,2.7,0.6c0.6,0.4,1.3,1.3,2.1,2.7l5.9,10.8
		l5.9-10.8c0.8-1.4,1.5-2.3,2.1-2.7c0.7-0.4,1.6-0.6,2.8-0.6c0.9,0,1.6,0.3,2.2,0.8c0.6,0.5,0.9,1.3,0.9,2.4v30
		c0,0.6-0.3,1.1-0.9,1.4c-0.6,0.4-1.4,0.5-2.2,0.5c-0.9,0-1.6-0.2-2.2-0.5c-0.6-0.4-0.9-0.8-0.9-1.4v-20.6l-5.6,10
		c-0.4,0.8-1.2,1.2-2.1,1.2c-0.9,0-1.6-0.4-2.1-1.2l-5.5-10.4v21c0,0.6-0.3,1.1-0.9,1.4c-0.6,0.4-1.4,0.5-2.2,0.5
		c-0.9,0-1.6-0.2-2.2-0.5C682.2,154.1,681.9,153.6,681.9,153z"/>
	<path d="M715.5,153.1v-31.2c0-0.6,0.3-1.1,0.8-1.4c0.5-0.4,1.2-0.5,1.9-0.5h9.3c6.4,0,9.6,2.8,9.6,8.4c0,3.9-1.4,6.4-4.1,7.6
		c1.6,0.6,2.9,1.5,3.7,2.7c0.8,1.2,1.2,2.9,1.2,5.1v1c0,3.6-0.9,6.1-2.6,7.8c-1.7,1.6-4.1,2.4-7,2.4h-10.2c-0.8,0-1.5-0.2-2-0.6
		C715.8,154,715.5,153.6,715.5,153.1z M721.7,133.5h5.4c1.2,0,2.2-0.4,2.9-1.1c0.7-0.7,1-1.7,1-3c0-1.2-0.3-2.2-1-3
		c-0.7-0.7-1.6-1.1-2.9-1.1h-5.3V133.5z M721.7,149.5h5.4c3.1,0,4.7-1.7,4.7-5.2v-0.8c0-1.8-0.4-3.1-1.2-3.9
		c-0.8-0.8-1.9-1.2-3.5-1.2h-5.4V149.5z"/>
	<path d="M739.3,152.2c0-0.1,0-0.2,0.1-0.5l9.3-30.2c0.2-0.6,0.7-1.1,1.4-1.4s1.6-0.5,2.6-0.5s1.8,0.2,2.6,0.6
		c0.8,0.4,1.2,0.9,1.4,1.6l9.3,30.2c0.1,0.3,0.1,0.4,0.1,0.5c0,0.7-0.4,1.3-1.3,1.8c-0.9,0.5-1.7,0.8-2.6,0.8
		c-1.2,0-1.9-0.4-2.1-1.2l-1.8-6.4h-10.3l-1.8,6.4c-0.3,0.8-1,1.2-2.4,1.2c-1,0-2-0.3-3-0.8S739.3,153,739.3,152.2z M749.2,142.5
		h8.3l-4.2-14.7L749.2,142.5z"/>
	<path d="M764.6,122.5c0-0.7,0.5-1.3,1.4-1.8c0.9-0.5,1.8-0.8,2.8-0.8c0.9,0,1.5,0.4,1.9,1.2l7.3,13.9l7.3-13.9
		c0.4-0.8,1.1-1.2,1.9-1.2c0.9,0,1.8,0.3,2.8,0.8c0.9,0.5,1.4,1.1,1.4,1.8c0,0.3,0,0.5-0.1,0.6l-9.9,17.2c-0.1,0.2-0.2,0.4-0.2,0.6
		V153c0,0.6-0.3,1.1-0.9,1.4c-0.6,0.4-1.3,0.5-2.2,0.5c-0.8,0-1.6-0.2-2.2-0.5c-0.6-0.4-0.9-0.8-0.9-1.4v-12.1c0-0.3,0-0.5-0.1-0.6
		l-9.9-17.2C764.6,122.9,764.6,122.7,764.6,122.5z"/>
	<path d="M794.6,153v-31.2c0-0.6,0.3-1.1,0.8-1.4c0.5-0.4,1.2-0.5,1.9-0.5h17.1c0.6,0,1.1,0.3,1.5,0.8c0.3,0.5,0.5,1.2,0.5,1.9
		c0,0.8-0.2,1.4-0.5,2c-0.4,0.5-0.8,0.8-1.4,0.8h-13.6v9.6h7.3c0.6,0,1.1,0.2,1.4,0.7c0.4,0.5,0.5,1.1,0.5,1.8
		c0,0.6-0.2,1.2-0.5,1.7s-0.8,0.7-1.5,0.7h-7.3v9.6h13.6c0.6,0,1.1,0.3,1.4,0.8c0.4,0.5,0.5,1.2,0.5,2c0,0.7-0.2,1.3-0.5,1.9
		c-0.3,0.5-0.8,0.8-1.5,0.8h-17.1c-0.7,0-1.4-0.2-1.9-0.5C794.9,154.1,794.6,153.6,794.6,153z"/>
	<path d="M819.3,144.3v-13.4c0-3.8,1-6.6,3-8.4c2-1.8,4.8-2.6,8.2-2.6s6.2,0.9,8.2,2.6c2,1.8,3.1,4.5,3.1,8.4v13.4
		c0,3.4-0.8,6-2.5,7.7c-1.7,1.8-3.9,2.8-6.8,3.1v3.1c0,0.6-0.2,1.1-0.6,1.4c-0.4,0.4-0.8,0.5-1.4,0.5s-1-0.2-1.4-0.5
		c-0.4-0.4-0.6-0.8-0.6-1.4v-3.1C822.3,154.5,819.3,150.9,819.3,144.3z M825.5,144.3c0,2.8,1,4.5,3,5.1v-2.5c0-0.6,0.2-1.1,0.6-1.4
		s0.9-0.5,1.4-0.5s1,0.2,1.4,0.5s0.6,0.8,0.6,1.4v2.5c2-0.7,3.1-2.4,3.1-5.1v-13.4c0-1.8-0.4-3.2-1.3-4.1c-0.9-0.9-2.1-1.4-3.7-1.4
		c-3.3,0-5,1.8-5,5.5V144.3z"/>
	<path d="M847,144.3v-22.5c0-0.6,0.3-1.1,0.9-1.4c0.6-0.3,1.3-0.5,2.2-0.5c0.9,0,1.6,0.2,2.2,0.5c0.6,0.3,0.9,0.8,0.9,1.4v22.5
		c0,3.7,1.8,5.5,5.3,5.5c3.5,0,5.3-1.8,5.3-5.5v-22.5c0-0.6,0.3-1.1,0.9-1.4c0.6-0.3,1.3-0.5,2.2-0.5c0.9,0,1.6,0.2,2.2,0.5
		c0.6,0.3,0.9,0.8,0.9,1.4v22.5c0,3.8-1,6.6-3.1,8.3s-4.9,2.7-8.4,2.7c-3.5,0-6.3-0.9-8.4-2.6C848,150.9,847,148.1,847,144.3z"/>
	<path d="M875.6,153v-31.2c0-0.6,0.3-1.1,0.8-1.4c0.5-0.4,1.2-0.5,1.9-0.5h17.1c0.6,0,1.1,0.3,1.5,0.8c0.3,0.5,0.5,1.2,0.5,1.9
		c0,0.8-0.2,1.4-0.5,2c-0.4,0.5-0.8,0.8-1.4,0.8h-13.6v9.6h7.3c0.6,0,1.1,0.2,1.4,0.7c0.4,0.5,0.5,1.1,0.5,1.8
		c0,0.6-0.2,1.2-0.5,1.7s-0.8,0.7-1.5,0.7h-7.3v9.6h13.6c0.6,0,1.1,0.3,1.4,0.8c0.4,0.5,0.5,1.2,0.5,2c0,0.7-0.2,1.3-0.5,1.9
		c-0.3,0.5-0.8,0.8-1.5,0.8h-17.1c-0.7,0-1.4-0.2-1.9-0.5C875.9,154.1,875.6,153.6,875.6,153z"/>
</g>
</svg>
